<svg width="32" height="32" viewBox="0 0 32 32" fill="none" xmlns="http://www.w3.org/2000/svg">
<g id="calendar-svgrepo-com (4) 1">
<path id="Vector" d="M9.25354 2.66663C9.80802 2.66663 10.2575 3.09891 10.2575 3.63215V5.57979C11.1481 5.56317 12.1463 5.56317 13.2694 5.56317H18.624C19.747 5.56317 20.7453 5.56317 21.6358 5.57979V3.63215C21.6358 3.09891 22.0853 2.66663 22.6398 2.66663C23.1942 2.66663 23.6438 3.09891 23.6438 3.63215V5.66521C25.5705 5.81359 26.8354 6.17773 27.7646 7.07141C28.694 7.96509 29.0726 9.1815 29.2269 11.0344L29.3332 12H3.89925H2.6665V11.0344C2.82078 9.1815 3.19944 7.96509 4.1287 7.07141C5.05798 6.17773 6.32285 5.81359 8.24957 5.66521V3.63215C8.24957 3.09891 8.69906 2.66663 9.25354 2.66663Z" fill="#574EE9"/>
<path id="Vector_2" opacity="0.5" d="M29.3326 18.6668V16.0001C29.3326 14.8813 29.3284 12.887 29.3112 12H2.67887C2.66166 12.887 2.66602 14.8813 2.66602 16.0001V18.6668C2.66602 23.6951 2.66602 26.2092 4.22811 27.7713C5.79021 29.3335 8.30437 29.3335 13.3327 29.3335H18.666C23.6944 29.3335 26.2085 29.3335 27.7706 27.7713C29.3326 26.2092 29.3326 23.6951 29.3326 18.6668Z" fill="#574EE9"/>
<path id="Vector_3" d="M24.0002 22.6667C24.0002 23.4031 23.4032 24 22.6668 24C21.9304 24 21.3335 23.4031 21.3335 22.6667C21.3335 21.9303 21.9304 21.3334 22.6668 21.3334C23.4032 21.3334 24.0002 21.9303 24.0002 22.6667Z" fill="#574EE9"/>
<path id="Vector_4" d="M24.0002 17.3333C24.0002 18.0697 23.4032 18.6667 22.6668 18.6667C21.9304 18.6667 21.3335 18.0697 21.3335 17.3333C21.3335 16.5969 21.9304 16 22.6668 16C23.4032 16 24.0002 16.5969 24.0002 17.3333Z" fill="#574EE9"/>
<path id="Vector_5" d="M17.3332 22.6667C17.3332 23.4031 16.7362 24 15.9998 24C15.2634 24 14.6665 23.4031 14.6665 22.6667C14.6665 21.9303 15.2634 21.3334 15.9998 21.3334C16.7362 21.3334 17.3332 21.9303 17.3332 22.6667Z" fill="#574EE9"/>
<path id="Vector_6" d="M17.3332 17.3333C17.3332 18.0697 16.7362 18.6667 15.9998 18.6667C15.2634 18.6667 14.6665 18.0697 14.6665 17.3333C14.6665 16.5969 15.2634 16 15.9998 16C16.7362 16 17.3332 16.5969 17.3332 17.3333Z" fill="#574EE9"/>
<path id="Vector_7" d="M10.6667 22.6667C10.6667 23.4031 10.0697 24 9.33333 24C8.59696 24 8 23.4031 8 22.6667C8 21.9303 8.59696 21.3334 9.33333 21.3334C10.0697 21.3334 10.6667 21.9303 10.6667 22.6667Z" fill="#574EE9"/>
<path id="Vector_8" d="M10.6667 17.3333C10.6667 18.0697 10.0697 18.6667 9.33333 18.6667C8.59696 18.6667 8 18.0697 8 17.3333C8 16.5969 8.59696 16 9.33333 16C10.0697 16 10.6667 16.5969 10.6667 17.3333Z" fill="#574EE9"/>
</g>
</svg>
