<svg width="22" height="22" viewBox="0 0 22 22" fill="none" xmlns="http://www.w3.org/2000/svg">
<g id="CaretDown">
<path id="Vector" d="M18.3615 8.73641L11.4865 15.6114C11.4226 15.6753 11.3468 15.726 11.2633 15.7606C11.1799 15.7952 11.0904 15.813 11.0001 15.813C10.9097 15.813 10.8202 15.7952 10.7368 15.7606C10.6533 15.726 10.5775 15.6753 10.5136 15.6114L3.63865 8.73641C3.54239 8.64026 3.47682 8.51771 3.45025 8.38427C3.42368 8.25084 3.4373 8.11252 3.48938 7.98683C3.54145 7.86114 3.62966 7.75373 3.74282 7.67819C3.85597 7.60266 3.989 7.56239 4.12505 7.5625H17.8751C18.0111 7.56239 18.1441 7.60266 18.2573 7.67819C18.3704 7.75373 18.4586 7.86114 18.5107 7.98683C18.5628 8.11252 18.5764 8.25084 18.5499 8.38427C18.5233 8.51771 18.4577 8.64026 18.3615 8.73641Z" fill="#4941CD"/>
</g>
</svg>
