<svg width="16" height="13" viewBox="0 0 16 13" fill="none" xmlns="http://www.w3.org/2000/svg">
<path d="M9.28741 6.42478C9.28741 6.70274 9.18964 6.97447 9.00648 7.20559C8.82331 7.43671 8.56296 7.61684 8.25836 7.72321C7.95376 7.82959 7.61859 7.85742 7.29523 7.80319C6.97187 7.74896 6.67484 7.61511 6.44171 7.41856C6.20858 7.22201 6.04982 6.97158 5.9855 6.69896C5.92118 6.42633 5.95419 6.14375 6.08036 5.88695C6.20653 5.63014 6.42019 5.41064 6.69432 5.25621C6.96845 5.10178 7.29074 5.01936 7.62044 5.01936C8.06255 5.01936 8.48655 5.16743 8.79917 5.43099C9.11178 5.69456 9.28741 6.05204 9.28741 6.42478ZM7.62044 3.81471C7.95014 3.81471 8.27243 3.73228 8.54656 3.57785C8.82069 3.42342 9.03435 3.20393 9.16052 2.94712C9.28669 2.69031 9.3197 2.40773 9.25538 2.13511C9.19106 1.86248 9.0323 1.61206 8.79917 1.41551C8.56604 1.21896 8.26901 1.0851 7.94565 1.03087C7.62229 0.976645 7.28712 1.00448 6.98252 1.11085C6.67792 1.21722 6.41757 1.39736 6.2344 1.62848C6.05124 1.8596 5.95347 2.13132 5.95347 2.40929C5.95347 2.78203 6.1291 3.1395 6.44171 3.40307C6.75433 3.66664 7.17833 3.81471 7.62044 3.81471ZM7.62044 9.03484C7.29074 9.03484 6.96845 9.11727 6.69432 9.2717C6.42019 9.42613 6.20653 9.64562 6.08036 9.90243C5.95419 10.1592 5.92118 10.4418 5.9855 10.7144C6.04982 10.9871 6.20858 11.2375 6.44171 11.434C6.67484 11.6306 6.97187 11.7645 7.29523 11.8187C7.61859 11.8729 7.95376 11.8451 8.25836 11.7387C8.56296 11.6323 8.82331 11.4522 9.00648 11.2211C9.18964 10.99 9.28741 10.7182 9.28741 10.4403C9.28741 10.0675 9.11178 9.71005 8.79917 9.44648C8.48655 9.18291 8.06255 9.03484 7.62044 9.03484Z" fill="black" fill-opacity="0.26"/>
</svg>
