<svg width="18" height="18" viewBox="0 0 18 18" fill="none" xmlns="http://www.w3.org/2000/svg">
<g filter="url(#filter0_i_1_5)">
<path d="M17.3203 7.93594L13.7969 11.0109L14.8523 15.5891C14.9082 15.8284 14.8923 16.0789 14.8065 16.3092C14.7208 16.5395 14.5691 16.7395 14.3703 16.884C14.1716 17.0286 13.9346 17.1114 13.6891 17.122C13.4436 17.1326 13.2003 17.0706 12.9898 16.9438L8.99688 14.5219L5.0125 16.9438C4.80201 17.0706 4.55879 17.1326 4.31326 17.122C4.06773 17.1114 3.83078 17.0286 3.63203 16.884C3.43328 16.7395 3.28155 16.5395 3.19582 16.3092C3.11009 16.0789 3.09415 15.8284 3.15 15.5891L4.20391 11.0156L0.679688 7.93594C0.493289 7.77518 0.358502 7.56296 0.292232 7.3259C0.225961 7.08884 0.231156 6.83749 0.307166 6.60337C0.383176 6.36925 0.526616 6.16278 0.719499 6.00986C0.912382 5.85694 1.14612 5.76436 1.39141 5.74375L6.03672 5.34141L7.85 1.01641C7.94469 0.789466 8.10442 0.595616 8.30905 0.459264C8.51369 0.322913 8.7541 0.250156 9 0.250156C9.24591 0.250156 9.48631 0.322913 9.69095 0.459264C9.89559 0.595616 10.0553 0.789466 10.15 1.01641L11.9688 5.34141L16.6125 5.74375C16.8578 5.76436 17.0915 5.85694 17.2844 6.00986C17.4773 6.16278 17.6207 6.36925 17.6967 6.60337C17.7728 6.83749 17.7779 7.08884 17.7117 7.3259C17.6454 7.56296 17.5106 7.77518 17.3242 7.93594H17.3203Z" fill="#DDE200"/>
</g>
<defs>
<filter id="filter0_i_1_5" x="0.246077" y="0.250156" width="17.5118" height="16.873" filterUnits="userSpaceOnUse" color-interpolation-filters="sRGB">
<feFlood flood-opacity="0" result="BackgroundImageFix"/>
<feBlend mode="normal" in="SourceGraphic" in2="BackgroundImageFix" result="shape"/>
<feColorMatrix in="SourceAlpha" type="matrix" values="0 0 0 0 0 0 0 0 0 0 0 0 0 0 0 0 0 0 127 0" result="hardAlpha"/>
<feOffset/>
<feGaussianBlur stdDeviation="0.5"/>
<feComposite in2="hardAlpha" operator="arithmetic" k2="-1" k3="1"/>
<feColorMatrix type="matrix" values="0 0 0 0 0 0 0 0 0 0 0 0 0 0 0 0 0 0 0.1 0"/>
<feBlend mode="normal" in2="shape" result="effect1_innerShadow_1_5"/>
</filter>
</defs>
</svg>
