<svg width="17" height="15" viewBox="0 0 17 15" fill="none" xmlns="http://www.w3.org/2000/svg">
<g filter="url(#filter0_i_5_122)">
<path d="M15.5121 6.37905L12.5287 8.57418L13.4224 11.8423C13.4697 12.0132 13.4562 12.192 13.3836 12.3564C13.311 12.5208 13.1826 12.6636 13.0143 12.7668C12.846 12.87 12.6454 12.929 12.4375 12.9366C12.2296 12.9442 12.0236 12.9 11.8454 12.8094L8.46451 11.0805L5.09087 12.8094C4.91265 12.9 4.70671 12.9442 4.49882 12.9366C4.29092 12.929 4.09029 12.87 3.92201 12.7668C3.75372 12.6636 3.62525 12.5208 3.55266 12.3564C3.48007 12.192 3.46658 12.0132 3.51387 11.8423L4.40622 8.57753L1.42221 6.37905C1.26439 6.26428 1.15026 6.11279 1.09415 5.94356C1.03804 5.77433 1.04244 5.5949 1.10679 5.42777C1.17115 5.26064 1.29261 5.11325 1.45592 5.00409C1.61924 4.89492 1.81715 4.82884 2.02484 4.81412L5.9581 4.5269L7.49343 1.43944C7.57361 1.27743 7.70885 1.13905 7.88212 1.04172C8.05539 0.944379 8.25894 0.892441 8.46715 0.892441C8.67536 0.892441 8.87892 0.944379 9.05219 1.04172C9.22546 1.13905 9.3607 1.27743 9.44088 1.43944L10.9808 4.5269L14.9128 4.81412C15.1205 4.82884 15.3184 4.89492 15.4817 5.00409C15.645 5.11325 15.7665 5.26064 15.8308 5.42777C15.8952 5.5949 15.8996 5.77433 15.8435 5.94356C15.7874 6.11279 15.6732 6.26428 15.5154 6.37905H15.5121Z" fill="black" fill-opacity="0.1"/>
</g>
<defs>
<filter id="filter0_i_5_122" x="1.05507" y="0.892441" width="14.8275" height="12.045" filterUnits="userSpaceOnUse" color-interpolation-filters="sRGB">
<feFlood flood-opacity="0" result="BackgroundImageFix"/>
<feBlend mode="normal" in="SourceGraphic" in2="BackgroundImageFix" result="shape"/>
<feColorMatrix in="SourceAlpha" type="matrix" values="0 0 0 0 0 0 0 0 0 0 0 0 0 0 0 0 0 0 127 0" result="hardAlpha"/>
<feOffset/>
<feGaussianBlur stdDeviation="0.5"/>
<feComposite in2="hardAlpha" operator="arithmetic" k2="-1" k3="1"/>
<feColorMatrix type="matrix" values="0 0 0 0 0 0 0 0 0 0 0 0 0 0 0 0 0 0 0.1 0"/>
<feBlend mode="normal" in2="shape" result="effect1_innerShadow_5_122"/>
</filter>
</defs>
</svg>
