<svg width="8" height="10" viewBox="0 0 8 10" fill="none" xmlns="http://www.w3.org/2000/svg">
<path d="M7.375 2.54562V0.875C7.375 0.676088 7.29598 0.485322 7.15533 0.34467C7.01468 0.204018 6.82391 0.125 6.625 0.125H1.375C1.17609 0.125 0.985322 0.204018 0.84467 0.34467C0.704018 0.485322 0.625 0.676088 0.625 0.875V2.5625C0.625253 2.67889 0.652473 2.79364 0.704524 2.89774C0.756575 3.00184 0.832041 3.09246 0.925 3.1625L3.37516 5L0.925 6.8375C0.832041 6.90754 0.756575 6.99816 0.704524 7.10226C0.652473 7.20636 0.625253 7.32111 0.625 7.4375V9.125C0.625 9.32391 0.704018 9.51468 0.84467 9.65533C0.985322 9.79598 1.17609 9.875 1.375 9.875H6.625C6.82391 9.875 7.01468 9.79598 7.15533 9.65533C7.29598 9.51468 7.375 9.32391 7.375 9.125V7.45438C7.3747 7.33851 7.34768 7.22427 7.29606 7.12053C7.24444 7.0168 7.16959 6.92636 7.07734 6.85625L4.62203 5L7.07734 3.14375C7.16967 3.07371 7.24457 2.98329 7.29621 2.87954C7.34784 2.77579 7.3748 2.66151 7.375 2.54562ZM6.35453 7.25H1.62484L4 5.46875L6.35453 7.25ZM1.375 9.125V8H6.625V9.125H1.375ZM6.625 2.54562L4 4.53125L1.375 2.5625V0.875H6.625V2.54562Z" fill="#4941CD"/>
</svg>
